<svg width="32" height="24" viewBox="0 0 32 24" fill="none" xmlns="http://www.w3.org/2000/svg">
<g id="Frame 1707479563">
<g id="Group 480993505">
<g id="extensity">
<path id="Vector" d="M5.5379 12.0021C9.02318 12.0021 11.2349 14.7162 11.045 18.1959C11.0393 18.3016 10.9509 18.3836 10.8451 18.3836H2.40695C2.28769 18.3836 2.19364 18.4864 2.21242 18.6041C2.46086 20.1625 3.80757 21.3473 5.66769 21.3473C6.99905 21.3473 8.11037 20.7471 8.61689 19.797C8.65391 19.7275 8.72488 19.6816 8.80359 19.6816H10.5399C10.6768 19.6816 10.7743 19.8148 10.7268 19.9433C9.94459 22.0573 7.99262 23.3158 5.58116 23.3158C2.11998 23.3158 0 20.7199 0 17.6698C0 14.5331 2.24977 12.0021 5.5379 12.0021ZM5.49463 13.9706C3.89816 13.9706 2.66963 14.9389 2.28544 16.3258C2.25127 16.4491 2.34754 16.5665 2.47552 16.5665H8.55426C8.68314 16.5665 8.77957 16.4475 8.74407 16.3237C8.3418 14.92 7.11196 13.9706 5.49463 13.9706Z" fill="white"/>
</g>
<g id="Group 28">
<path id="Ellipse 4715" d="M20.9688 17.7771C19.1376 17.7149 17.208 17.0197 15.7575 15.8808C14.3087 14.743 13.3657 13.1876 13.4264 11.4009C13.4877 9.59684 14.6713 7.44168 16.3433 5.7389C18.018 4.03333 20.0953 2.86972 21.8628 2.92978C23.605 2.98897 25.4188 4.44621 26.8048 6.45159C28.183 8.44561 29.0587 10.8703 28.9967 12.6951C28.9364 14.4681 27.8877 15.7601 26.3568 16.6073C24.8192 17.4581 22.8224 17.8401 20.9688 17.7771Z" stroke="white" stroke-width="0.63404"/>
<path id="Ellipse 4714" d="M28.1054 14.212C27.2711 15.7535 25.5854 17.1783 23.7023 18.001C21.8142 18.826 19.808 19.013 18.3125 18.2036C16.7874 17.3782 15.2649 15.3389 14.3408 13.0696C13.8818 11.9422 13.5787 10.7772 13.4954 9.70471C13.4118 8.62927 13.5508 7.67058 13.9494 6.9341C14.3453 6.20263 15.0795 5.58493 16.043 5.09973C17.0038 4.61593 18.1695 4.27591 19.3907 4.08731C21.8471 3.70793 24.4442 3.9525 25.9756 4.78135C27.4895 5.6007 28.4483 7.16419 28.8137 8.9403C29.1792 10.7167 28.9415 12.6672 28.1054 14.212Z" stroke="white" stroke-width="0.63404"/>
<path id="Ellipse 4716" d="M17.5194 3.56776C19.3276 3.22555 21.8691 3.38764 24.0415 4.0997C26.2337 4.81823 27.9222 6.05004 28.2446 7.75351C28.5977 9.61939 28.8419 12.1362 28.5433 14.2607C28.2411 16.4115 27.4134 17.9973 25.7665 18.309C23.9683 18.6493 21.161 18.3768 18.7106 17.5459C17.4888 17.1317 16.375 16.5849 15.529 15.9223C14.682 15.259 14.1266 14.4989 13.9677 13.659C13.6192 11.818 13.6381 9.42887 14.1971 7.42496C14.7598 5.4082 15.834 3.88672 17.5194 3.56776Z" stroke="white" stroke-width="0.63404"/>
<g id="AI">
<path id="Vector_2" d="M23.6611 13.4101V7.88757H24.6502V13.4101H23.6611Z" fill="white"/>
<path id="Vector_3" d="M23.2519 13.4101H22.1391L21.5951 12.083H19.1306L18.5948 13.4101H17.5068L19.8312 7.88757H20.9192L23.2519 13.4101ZM20.3505 9.05801L19.4933 11.1846H21.2242L20.3505 9.05801Z" fill="white"/>
</g>
</g>
</g>
</g>
</svg>
